# xmcd
#
# Track frame offsets: 
#        150
#        11623
#        19527
#        28935
#        38587
#        46750
#        56622
#        68176
#        76823
#        86785
#        95306
#        105967
#        114184
#        124725
#        133155
#        142876
#
# Disc length: 2026 seconds
#
# Revision: 2
# Processed by: cddbd v1.5.2PL0 Copyright (c) Steve Scherf et al.
# Submitted via: ExactAudioCopyFreeDBPlugin 1.0
#
DISCID=bf07e810
DTITLE=Dillards - Pickin' And Fiddlin' with Byron Berline (2014 RM)
DYEAR=1965
DGENRE=Bluegrass
TTITLE0=Hamilton County
TTITLE1=Fisher's Hornpipe
TTITLE2=Paddy On The Turnpike
TTITLE3=Jazz Bow Rag
TTITLE4=Apple Blossom
TTITLE5=Tom And Jerry
TTITLE6=Cotton Patch
TTITLE7=Durang's Hornpipe
TTITLE8=Wagoner
TTITLE9=Sally Johnson
TTITLE10=Crazy Creek
TTITLE11=Drunken Billy Goat
TTITLE12=Black Mountain Rag
TTITLE13=Twinkle, Twinkle
TTITLE14=Wild John
TTITLE15=Soppin' The Gravy
EXTD=
EXTT0=
EXTT1=
EXTT2=
EXTT3=
EXTT4=
EXTT5=
EXTT6=
EXTT7=
EXTT8=
EXTT9=
EXTT10=
EXTT11=
EXTT12=
EXTT13=
EXTT14=
EXTT15=
PLAYORDER=
